<svg xmlns="http://www.w3.org/2000/svg" width="16" height="16" viewBox="0 0 16 16"><defs><style>.a{fill:#7a35ff;}</style></defs><g transform="translate(-4 -4)"><path class="a" d="M12,4a8,8,0,1,0,8,8A8,8,0,0,0,12,4Zm0,14.545A6.545,6.545,0,1,1,18.545,12,6.546,6.546,0,0,1,12,18.545Z"/><path class="a" d="M45.455,24.79V20.727a.727.727,0,1,0-1.455,0v4.364s0,0,0,0a.711.711,0,0,0,.014.137c0,.022.013.043.019.064a.727.727,0,0,0,.022.072.748.748,0,0,0,.038.072c.01.018.018.036.029.054a.708.708,0,0,0,.091.111l2.057,2.057A.727.727,0,1,0,47.3,26.634Z" transform="translate(-32.727 -13.091)"/></g></svg>