<svg xmlns="http://www.w3.org/2000/svg" width="161.247" height="48" viewBox="0 0 161.247 48"><defs><style>.a{fill:#7a35ff;}.b{fill:#fff;}</style></defs><g transform="translate(-148.53 -148.907)"><g transform="translate(207.033 151.204)"><path class="a" d="M524.557,238.233a1.262,1.262,0,0,1,1.623-.286l3.057,1.769a1.249,1.249,0,0,1,.382,1.863,12.693,12.693,0,0,1-10.035,4.682,12.686,12.686,0,1,1,0-25.37,12.7,12.7,0,0,1,10.035,4.682,1.309,1.309,0,0,1-.382,1.912l-3.057,1.72a1.26,1.26,0,0,1-1.623-.286,6.329,6.329,0,0,0-4.969-2.2c-4.063,0-6.594,3.106-6.594,6.882,0,3.727,2.531,6.878,6.594,6.878A6.21,6.21,0,0,0,524.557,238.233Z" transform="translate(-506.78 -211.432)"/><path class="a" d="M675.53,167.93H678.2a1.7,1.7,0,0,1,1.672,1.721v30.005a1.7,1.7,0,0,1-1.672,1.72H675.53a1.713,1.713,0,0,1-1.72-1.72v-30A1.713,1.713,0,0,1,675.53,167.93Z" transform="translate(-646.534 -167.12)"/><path class="a" d="M744.87,166.22a3.225,3.225,0,1,1,3.2,3.248A3.243,3.243,0,0,1,744.87,166.22Z" transform="translate(-705.99 -162.97)"/><path class="a" d="M746.05,246.9V226.12a1.711,1.711,0,0,1,1.72-1.72H750.4a1.711,1.711,0,0,1,1.72,1.72V246.9a1.712,1.712,0,0,1-1.72,1.72H747.77A1.712,1.712,0,0,1,746.05,246.9Z" transform="translate(-706.977 -214.368)"/><path class="a" d="M840.267,230.981v13a1.715,1.715,0,0,1-1.721,1.72H835.92a1.715,1.715,0,0,1-1.721-1.72V232.225c0-3.106-1.29-5.448-4.728-5.448-3.584,0-5.162,2.629-5.162,5.448v11.753a1.7,1.7,0,0,1-1.671,1.72h-2.678a1.7,1.7,0,0,1-1.671-1.72V223.191a1.7,1.7,0,0,1,1.671-1.72h2.678a1.7,1.7,0,0,1,1.671,1.72v1.244a8.056,8.056,0,0,1,7.071-3.535C837.494,220.9,840.267,225.82,840.267,230.981Z" transform="translate(-767.42 -211.44)"/><path class="a" d="M1000.382,221.473h2.629a1.711,1.711,0,0,1,1.72,1.72v20.785a1.712,1.712,0,0,1-1.72,1.72h-2.629a1.713,1.713,0,0,1-1.72-1.72V242.83c-1.529,2.007-3.968,3.441-7.742,3.441-7.5,0-11.8-6.354-11.8-12.661,0-6.354,4.3-12.71,11.8-12.71,3.774,0,6.214,1.434,7.742,3.441v-1.148A1.712,1.712,0,0,1,1000.382,221.473Zm-1.958,12.135c0-3.774-2.389-6.882-6.547-6.882s-6.545,3.153-6.545,6.882c0,3.679,2.389,6.878,6.545,6.878S998.424,237.335,998.424,233.608Z" transform="translate(-901.986 -211.44)"/></g><g transform="translate(148.53 148.907)"><path class="a" d="M148.53,164.139v17.537a6.46,6.46,0,0,0,3.232,5.6l15.189,8.769a6.461,6.461,0,0,0,6.462,0l15.189-8.769a6.464,6.464,0,0,0,3.232-5.6V164.139a6.46,6.46,0,0,0-3.232-5.6l-15.189-8.769a6.461,6.461,0,0,0-6.462,0l-15.189,8.769A6.458,6.458,0,0,0,148.53,164.139Z" transform="translate(-148.53 -148.907)"/><g transform="translate(9.078 11.543)"><path class="b" d="M221.572,236.621a1.243,1.243,0,0,1,1.6-.281l3,1.736a1.225,1.225,0,0,1,.376,1.829,12.466,12.466,0,0,1-9.854,4.6,12.456,12.456,0,1,1,0-24.912,12.466,12.466,0,0,1,9.854,4.6,1.286,1.286,0,0,1-.376,1.878l-3,1.689a1.24,1.24,0,0,1-1.6-.281,6.218,6.218,0,0,0-4.879-2.16c-3.989,0-6.475,3.05-6.475,6.757,0,3.658,2.485,6.754,6.475,6.754A6.1,6.1,0,0,0,221.572,236.621Z" transform="translate(-204.12 -219.59)"/><path class="b" d="M261.72,279.523a3.166,3.166,0,1,1,3.144,3.189A3.186,3.186,0,0,1,261.72,279.523Z" transform="translate(-252.314 -267.064)"/></g></g></g></svg>